<svg xmlns="http://www.w3.org/2000/svg" xmlns:xlink="http://www.w3.org/1999/xlink" viewBox="0 0 654 534"><defs><style>.cls-1{fill:url(#linear-gradient);}.cls-2{fill:url(#linear-gradient-2);}.cls-3{fill:url(#linear-gradient-3);}.cls-4{fill:url(#linear-gradient-4);}.cls-5{fill:url(#linear-gradient-5);}</style><linearGradient id="linear-gradient" x1="272.5" y1="17" x2="272.5" gradientUnits="userSpaceOnUse"><stop offset="0" stop-color="#2c3e50"/><stop offset="0.99" stop-color="#2c3e50"/></linearGradient><linearGradient id="linear-gradient-2" x1="345.5" x2="345.5" xlink:href="#linear-gradient"/><linearGradient id="linear-gradient-3" x1="347.5" y1="534" x2="347.5" y2="517" gradientUnits="userSpaceOnUse"><stop offset="0" stop-color="#8e44ad"/><stop offset="0.85" stop-color="#8e44ad"/><stop offset="0.99" stop-color="#8e44ad"/></linearGradient><linearGradient id="linear-gradient-4" x1="292.5" y1="534" x2="292.5" y2="517" gradientUnits="userSpaceOnUse"><stop offset="0" stop-color="#8e44ad"/><stop offset="0.99" stop-color="#8e44ad"/></linearGradient><linearGradient id="linear-gradient-5" x1="327" y1="492" x2="327" y2="37" gradientUnits="userSpaceOnUse"><stop offset="0" stop-color="#8e44ad"/><stop offset="0.99" stop-color="#2c3e50"/></linearGradient></defs><title>Asset 1</title><g id="Layer_2" data-name="Layer 2"><g id="Layer_3" data-name="Layer 3"><path class="cls-1" d="M248.5,17h48a8.5,8.5,0,0,0,0-17h-48a8.5,8.5,0,0,0,0,17Z"/><path class="cls-2" d="M335.5,17h20a8.5,8.5,0,0,0,0-17h-20a8.5,8.5,0,0,0,0,17Z"/><path class="cls-3" d="M371.5,517h-48a8.5,8.5,0,0,0,0,17h48a8.5,8.5,0,0,0,0-17Z"/><path class="cls-4" d="M302.5,517h-20a8.5,8.5,0,0,0,0,17h20a8.5,8.5,0,0,0,0-17Z"/><path class="cls-5" d="M639.5,154H510.38a228.48,228.48,0,0,0-32.84-45h36a10.5,10.5,0,0,0,0-21H455a227.43,227.43,0,0,0-287,0H108.5a10.5,10.5,0,0,0,0,21h37a228.33,228.33,0,0,0-20.34,25H197.5a10.5,10.5,0,0,1,0,21H112.05a227.57,227.57,0,0,0-13.76,30H10.5a10.5,10.5,0,0,0,0,21H91.6a228.74,228.74,0,0,0,.83,120H134.5a7.5,7.5,0,0,1,0,15H97.21q3.27,9.18,7.3,18h-59a11.5,11.5,0,0,0,0,23h71.16a228.64,228.64,0,0,0,78.44,78H170.5a7.5,7.5,0,0,0,0,15h54.57a228.13,228.13,0,0,0,172.83,0h65.6a7.5,7.5,0,0,0,0-15H427.88a228.46,228.46,0,0,0,42.81-33H555.5a11.5,11.5,0,0,0,0-23H491.21a227.75,227.75,0,0,0,42.14-190H483.5a7.5,7.5,0,0,1,0-15h45.9Q527,190.87,524,183H639.5a14.5,14.5,0,0,0,0-29Zm-401,1h-11a10.5,10.5,0,0,1,0-21h11a10.5,10.5,0,0,1,0,21Zm114,320a7.5,7.5,0,1,1,7.5-7.5A7.5,7.5,0,0,1,352.5,475Zm36,0h-9a7.5,7.5,0,0,1,0-15h9a7.5,7.5,0,0,1,0,15Zm76-261h-4a7.5,7.5,0,0,1,0-15h4a7.5,7.5,0,0,1,0,15Z"/></g></g></svg>