<svg xmlns="http://www.w3.org/2000/svg" viewBox="0 0 1920 1080"><defs><style>.cls-1{fill:#3fa9f5;}</style></defs><title>bg-image</title><g id="Layer_2" data-name="Layer 2"><g id="Layer_1-2" data-name="Layer 1"><circle class="cls-1" cx="315.5" cy="99.5" r="5"/><circle class="cls-1" cx="1656" cy="763" r="7.5"/><circle class="cls-1" cx="1737.27" cy="738.24" r="9.5" transform="translate(906.87 2433.39) rotate(-86.92)"/><path class="cls-1" d="M1700.19,740.34a6.5,6.5,0,1,0-7.17,5.76A6.5,6.5,0,0,0,1700.19,740.34Z"/><path class="cls-1" d="M1739.56,701.9a3.43,3.43,0,1,0-.74-4.79A3.42,3.42,0,0,0,1739.56,701.9Z"/><path class="cls-1" d="M1715.18,711.77a6.5,6.5,0,1,0-9.09,1.39A6.51,6.51,0,0,0,1715.18,711.77Z"/><path class="cls-1" d="M1726.63,767.9a3,3,0,1,0-4.22.65A3,3,0,0,0,1726.63,767.9Z"/><path class="cls-1" d="M1684.63,671.9a3,3,0,1,0-4.22.65A3,3,0,0,0,1684.63,671.9Z"/><path class="cls-1" d="M1782.58,783.17a5.5,5.5,0,1,0-7.75-.59A5.49,5.49,0,0,0,1782.58,783.17Z"/><path class="cls-1" d="M1675.41,783.05a6,6,0,1,0-8.46-.64A6,6,0,0,0,1675.41,783.05Z"/><path class="cls-1" d="M1663.46,608a9.5,9.5,0,1,0-7.46,11.17A9.5,9.5,0,0,0,1663.46,608Z"/><path class="cls-1" d="M1606.66,625.56a6.5,6.5,0,1,0,5.1-7.65A6.5,6.5,0,0,0,1606.66,625.56Z"/><path class="cls-1" d="M1616.86,595.31a6.5,6.5,0,1,0-4.06-8.25A6.5,6.5,0,0,0,1616.86,595.31Z"/><path class="cls-1" d="M1652.91,641.35a3,3,0,1,0-3.82,1.88A3,3,0,0,0,1652.91,641.35Z"/><path class="cls-1" d="M1582.1,558.6a3,3,0,1,0,1.88,3.82A3,3,0,0,0,1582.1,558.6Z"/><circle class="cls-1" cx="1004.5" cy="242.5" r="5"/><circle class="cls-1" cx="717.5" cy="147.5" r="5"/><circle class="cls-1" cx="768" cy="157" r="7.5"/><path class="cls-1" d="M1167.51,284.05a3.43,3.43,0,1,0,4.62,1.5A3.44,3.44,0,0,0,1167.51,284.05Z"/><path class="cls-1" d="M1170.79,254.14a3.43,3.43,0,1,0,1.25,4.69A3.43,3.43,0,0,0,1170.79,254.14Z"/><circle class="cls-1" cx="1129.5" cy="299.5" r="5" transform="translate(-38.13 345.45) rotate(-17.1)"/><path class="cls-1" d="M1115.46,249.05a7.5,7.5,0,1,0,6.64,8.27A7.5,7.5,0,0,0,1115.46,249.05Z"/><path class="cls-1" d="M1143.13,249.63a3.43,3.43,0,1,0-4.42-2A3.43,3.43,0,0,0,1143.13,249.63Z"/><circle class="cls-1" cx="1144.52" cy="267.54" r="3.43" transform="translate(431.01 1201.57) rotate(-65.78)"/><path class="cls-1" d="M1094.62,231.38a3.43,3.43,0,1,0,.73,4.79A3.43,3.43,0,0,0,1094.62,231.38Z"/><path class="cls-1" d="M1064.79,237.68a6.5,6.5,0,1,0,1.39,9.09A6.5,6.5,0,0,0,1064.79,237.68Z"/><path class="cls-1" d="M670,141.69a3,3,0,1,0,.65,4.21A3,3,0,0,0,670,141.69Z"/><path class="cls-1" d="M295,89.69a3,3,0,1,0,.65,4.21A3,3,0,0,0,295,89.69Z"/><path class="cls-1" d="M1035,202.69a3,3,0,1,0,.65,4.21A3,3,0,0,0,1035,202.69Z"/><path class="cls-1" d="M683,164.69a3,3,0,1,0,.65,4.21A3,3,0,0,0,683,164.69Z"/><path class="cls-1" d="M253.63,57.9a3,3,0,1,0-4.22.65A3,3,0,0,0,253.63,57.9Z"/><path class="cls-1" d="M0,0Q308.82,18.86,572.74,67.5H305.17A3,3,0,0,0,304,64.69a3,3,0,0,0-4.77,2.81H225.5a7,7,0,0,0,0,14H331.32a6.5,6.5,0,1,0,9.36,0H644.25q69.56,14.37,135.7,31H720.19a3.42,3.42,0,1,0-6.24,0H644.5a7,7,0,0,0,0,14H748.32a6.5,6.5,0,1,0,9.36,0h75.79q30.35,8.25,59.92,17H1105.5a7,7,0,0,1,0,14H939.1q23.21,7.33,45.91,15h93.49a7,7,0,0,1,0,14h-53.16q21.18,7.58,41.89,15.44a9.5,9.5,0,0,0,16.53,9,9.79,9.79,0,0,0,1.19-2.2q11.33,4.43,22.52,8.93a7.5,7.5,0,0,0,13.1,7,7.83,7.83,0,0,0,.78-1.33q35.67,14.67,69.91,30.3a9.28,9.28,0,0,0-2.28,2.65,9.5,9.5,0,1,0,16.44,9.52,9.36,9.36,0,0,0,1.26-5q74.22,34.69,141.44,74a6.73,6.73,0,0,1,12.91,3.29,6.66,6.66,0,0,1-1.45,3.49q10.53,6.27,20.88,12.67a3.54,3.54,0,0,1,6.62,2.1,3.61,3.61,0,0,1-.63,1.64q19.3,12.06,38,24.52h132a7,7,0,0,1,0,14H1445q8.6,6,17.07,12h56.41a7,7,0,0,1,0,14h-37.18q7.38,5.47,14.65,11H1395.5a4,4,0,0,0,0,8h110.85q9.56,7.44,19,15h74.2a7,7,0,0,1,0,14h-57.18q8.88,7.44,17.57,15H1419.5a5,5,0,0,0,0,10h151.77q24.4,21.72,47.31,44.44a9.5,9.5,0,1,0,12.32,12.4q7.57,7.73,15,15.57a3.42,3.42,0,1,0,3.86,4.46,2.61,2.61,0,0,0,.06-.27c2.34,2.5,4.68,5,7,7.52a5,5,0,1,1,4,4.33q10.3,11.34,20.26,22.91a3.37,3.37,0,0,1,1.33,1.54q22,25.67,42.26,52.45a9.5,9.5,0,1,0,8.16,15.11,9.61,9.61,0,0,0,1.29-2.45,1081.4,1081.4,0,0,1,74.35,116h-169a6.64,6.64,0,0,0,.09-1,6,6,0,0,0-12,0,6.64,6.64,0,0,0,.09,1H1600.5a7,7,0,0,0,0,14H1816c2,3.66,3.91,7.32,5.82,11H1673.5a7,7,0,0,0,0,14H1829c1.34,2.66,2.69,5.32,4,8H1739.5a7,7,0,0,0,0,14h100.29Q1890.84,958,1920,1080V0ZM1317,290.35a2.14,2.14,0,1,1-.46-3A2.14,2.14,0,0,1,1317,290.35Zm21.65,28.24a4.61,4.61,0,1,1-1-6.44A4.61,4.61,0,0,1,1338.69,318.59Zm12.45-25.37a6.73,6.73,0,1,1-1.44-9.41A6.74,6.74,0,0,1,1351.14,293.22Zm8.22,17.86a2.43,2.43,0,1,1-.52-3.39A2.43,2.43,0,0,1,1359.36,311.08Zm9.3-14.44a5.32,5.32,0,1,1,1.14,7.43A5.32,5.32,0,0,1,1368.66,296.64Zm9.66,29.43a5.32,5.32,0,1,1-4.71-5.86A5.32,5.32,0,0,1,1378.32,326.07Zm11.76-6.86a2.43,2.43,0,1,1,3.13,1.41A2.42,2.42,0,0,1,1390.08,319.21Zm5,16.38a2.43,2.43,0,1,1,1.41-3.14A2.43,2.43,0,0,1,1395.06,335.59ZM1769.82,50.11a3.43,3.43,0,1,1,.74,4.79A3.43,3.43,0,0,1,1769.82,50.11Zm-68.53,570.54a3.43,3.43,0,1,1-2.47-4.17A3.43,3.43,0,0,1,1701.29,620.65Zm9.78-24a7.5,7.5,0,1,1-.66-10.58A7.49,7.49,0,0,1,1711.07,596.67Zm4.56-571.77a3,3,0,1,1-.65-4.21A3,3,0,0,1,1715.63,24.9Zm2.64,67A6.5,6.5,0,1,1,1724,99.1,6.49,6.49,0,0,1,1718.27,91.94Zm12.85,533.66a7.5,7.5,0,1,1,4.73-9.49A7.49,7.49,0,0,1,1731.12,625.6Zm15.06-560.83a6.5,6.5,0,1,1-1.39-9.09A6.51,6.51,0,0,1,1746.18,64.77Zm2.26-47.06a9.5,9.5,0,1,1,2,13.28A9.49,9.49,0,0,1,1748.44,17.71Zm9.19,103.19a3,3,0,1,1-.65-4.21A3,3,0,0,1,1757.63,120.9Zm20.08-28.63a9.5,9.5,0,1,1-8.41-10.47A9.5,9.5,0,0,1,1777.71,92.27Zm10.77-58.48a7.5,7.5,0,1,1,1.6,10.48A7.5,7.5,0,0,1,1788.48,33.79Zm-1.29,39.9a7.5,7.5,0,1,1,6.65,8.27A7.5,7.5,0,0,1,1787.19,73.69Zm4.29,571.1a7.5,7.5,0,1,1,1.6,10.48A7.5,7.5,0,0,1,1791.48,644.79Zm13.62,41.53a7.5,7.5,0,1,1-6.64-8.27A7.49,7.49,0,0,1,1805.1,686.32ZM1804.53,117a5,5,0,1,1,4.43,5.51A5,5,0,0,1,1804.53,117ZM1817.47,729a5,5,0,1,1-4.43-5.51A5,5,0,0,1,1817.47,729Zm1.24-663.39a3.43,3.43,0,1,1,4.42,2A3.43,3.43,0,0,1,1818.71,65.65Zm4.59,16.69a3.43,3.43,0,1,1-2,4.42A3.43,3.43,0,0,1,1823.3,82.34Zm-1.59,594.31a3.43,3.43,0,1,1,4.42,2A3.43,3.43,0,0,1,1821.71,676.65Zm7,23.1a3.43,3.43,0,1,1,2-4.42A3.44,3.44,0,0,1,1828.74,699.75ZM1856,79.5A11.5,11.5,0,1,1,1867.5,68,11.5,11.5,0,0,1,1856,79.5Z"/></g></g></svg>