<svg xmlns="http://www.w3.org/2000/svg" xmlns:xlink="http://www.w3.org/1999/xlink" viewBox="0 0 1920 1080"><defs><style>.cls-1{fill:url(#linear-gradient);}</style><linearGradient id="linear-gradient" x1="960" y1="1080" x2="960" gradientUnits="userSpaceOnUse"><stop offset="0" stop-color="#8e44ad"/><stop offset="0.99" stop-color="#2c3e50"/></linearGradient></defs><title>Asset 2</title><g id="Layer_2" data-name="Layer 2"><g id="Layer_3" data-name="Layer 3"><path class="cls-1" d="M0,0S66.38,15.58,172.75,47H122.42a10.42,10.42,0,0,0,0,20.84h119Q275.91,78.57,313.9,91H192a14,14,0,0,0,0,28H396.81q30.46,10.59,62.31,22.12a9,9,0,0,1,1.38-.12h109a8.5,8.5,0,0,1,0,17H504.92c67.84,25.39,139.16,53.87,211.76,85.46a10.41,10.41,0,0,0,7.74,17.38H756Q780.24,271.7,804.54,283H697a14,14,0,0,0,0,28H863.3q44.54,21.74,88.82,45h-24.7a10.42,10.42,0,1,0,0,20.84H991q39.35,21.46,78,44.16l1.69,1H1207a14,14,0,0,1,0,28h-89.62c55,33.54,108.29,68.12,159.61,103H1221.5a8.5,8.5,0,0,0,0,17h80.31q31.13,21.48,61.17,43H1500.5a13.5,13.5,0,0,1,0,27H1400.28q15.77,11.52,31.18,23H1331a14,14,0,0,0,0,28h137.68q13.89,10.54,27.43,21h56.39a13.5,13.5,0,0,1,0,27h-21.71c84.1,66.09,157.6,128.29,217.39,181h-61.76a10.42,10.42,0,0,0,0,20.84h85.25q20.77,18.55,38.93,35.16H1612a14,14,0,0,0,0,28h229c50.88,47.38,79,76,79,76V0ZM714,218H689a13,13,0,0,1,0-26h25a13,13,0,0,1,0,26Zm48,0h-6a13,13,0,0,1,0-26h6a13,13,0,0,1,0,26Zm502,218.51A13.49,13.49,0,0,1,1250.51,450h-5A13.49,13.49,0,0,1,1232,436.51v-1A13.49,13.49,0,0,1,1245.49,422h5A13.49,13.49,0,0,1,1264,435.49Zm327,191A13.49,13.49,0,0,1,1577.51,641h-24A13.49,13.49,0,0,1,1540,627.51v-1A13.49,13.49,0,0,1,1553.49,613h24A13.49,13.49,0,0,1,1591,626.49Z"/></g></g></svg>